<svg width="27" height="25" viewBox="0 0 27 25" fill="none" xmlns="http://www.w3.org/2000/svg">
<path d="M24.2498 0.5H10.9165V4.66667H14.2498V6.33333H3.4165C1.99984 6.33333 0.916504 7.41667 0.916504 8.83333V18C0.916504 19.4167 1.99984 20.5 3.4165 20.5H4.24984V24.75L9.49984 20.5H15.0832V14.6667H24.2498C25.6665 14.6667 26.7498 13.5833 26.7498 12.1667V3C26.7498 1.58333 25.6665 0.5 24.2498 0.5ZM9.9165 17.0833L9.49984 15.75H6.9165L6.4165 17.0833H4.4165L7.1665 9.66667H9.1665L11.9165 17.0833H9.9165ZM22.5832 10.5V12.1667C21.4998 12.1667 20.3332 11.8333 19.3332 11.3333C18.3332 11.8333 17.1665 12.0833 15.9998 12.1667L15.9165 10.5C16.4998 10.5 17.0832 10.4167 17.6665 10.25C16.9165 9.5 16.4165 8.58333 16.1665 7.58333H17.9165C18.1665 8.33333 18.6665 8.91667 19.2498 9.41667C20.1665 8.66667 20.7498 7.58333 20.8332 6.33333H15.8332V4.66667H18.3332V3H19.9998V4.66667H22.7498L22.8332 5.5C22.9165 7.25 22.2498 9 20.9998 10.25C21.5832 10.4167 22.0832 10.5 22.5832 10.5Z" fill="#4A4949"/>
</svg>
