<svg width="25" height="25" viewBox="0 0 25 25" fill="none" xmlns="http://www.w3.org/2000/svg">
<path d="M5.30926 17.5025C6.5166 17.5025 7.49646 18.4825 7.49646 19.69V22.8125C7.49646 23.3927 7.26603 23.9491 6.85585 24.3593C6.44567 24.7695 5.88935 25 5.30926 25H2.1872C1.60712 25 1.05079 24.7695 0.640615 24.3593C0.230436 23.9491 0 23.3927 0 22.8125V19.69C0 18.4825 0.979864 17.5025 2.1872 17.5025H5.30926ZM5.30926 19.3775H2.1872C2.10433 19.3775 2.02485 19.4104 1.96626 19.469C1.90766 19.5276 1.87474 19.6071 1.87474 19.69V22.8125C1.87474 22.985 2.01472 23.125 2.1872 23.125H5.30926C5.39213 23.125 5.47161 23.0921 5.5302 23.0335C5.5888 22.9749 5.62172 22.8954 5.62172 22.8125V19.69C5.62172 19.6071 5.5888 19.5276 5.5302 19.469C5.47161 19.4104 5.39213 19.3775 5.30926 19.3775ZM9.68366 20H24.0629C24.3004 20.0001 24.529 20.0903 24.7026 20.2525C24.8761 20.4146 24.9816 20.6366 24.9978 20.8736C25.014 21.1106 24.9396 21.3449 24.7898 21.5291C24.6399 21.7134 24.4257 21.8339 24.1904 21.8662L24.0629 21.875H9.68366C9.44616 21.8749 9.21755 21.7847 9.04401 21.6225C8.87047 21.4604 8.76494 21.2384 8.74876 21.0014C8.73257 20.7644 8.80692 20.5301 8.9568 20.3459C9.10668 20.1616 9.3209 20.0411 9.55618 20.0088L9.68366 20ZM5.30926 8.75125C6.5166 8.75125 7.49646 9.73125 7.49646 10.9388V14.0612C7.49646 14.6414 7.26603 15.1978 6.85585 15.608C6.44567 16.0183 5.88935 16.2487 5.30926 16.2487H2.1872C1.60712 16.2487 1.05079 16.0183 0.640615 15.608C0.230436 15.1978 0 14.6414 0 14.0612V10.9375C0 9.73 0.979864 8.75 2.1872 8.75H5.30926V8.75125ZM5.30926 10.6263H2.1872C2.10433 10.6263 2.02485 10.6592 1.96626 10.7178C1.90766 10.7764 1.87474 10.8559 1.87474 10.9388V14.0612C1.87474 14.2337 2.01472 14.3737 2.1872 14.3737H5.30926C5.39213 14.3737 5.47161 14.3408 5.5302 14.2822C5.5888 14.2236 5.62172 14.1441 5.62172 14.0612V10.9375C5.62172 10.8546 5.5888 10.7751 5.5302 10.7165C5.47161 10.6579 5.39213 10.625 5.30926 10.625V10.6263ZM9.68366 11.25H24.0629C24.3004 11.2501 24.529 11.3403 24.7026 11.5025C24.8761 11.6646 24.9816 11.8866 24.9978 12.1236C25.014 12.3606 24.9396 12.5949 24.7898 12.7791C24.6399 12.9634 24.4257 13.0839 24.1904 13.1163L24.0629 13.125H9.68366C9.44616 13.1249 9.21755 13.0347 9.04401 12.8725C8.87047 12.7104 8.76494 12.4884 8.74876 12.2514C8.73257 12.0144 8.80692 11.7801 8.9568 11.5959C9.10668 11.4116 9.3209 11.2911 9.55618 11.2587L9.68366 11.25ZM5.30926 0C6.5166 0 7.49646 0.98 7.49646 2.1875V5.31C7.49646 5.89016 7.26603 6.44656 6.85585 6.8568C6.44567 7.26703 5.88935 7.4975 5.30926 7.4975H2.1872C1.60712 7.4975 1.05079 7.26703 0.640615 6.8568C0.230436 6.44656 0 5.89016 0 5.31V2.1875C0 0.98 0.979864 0 2.1872 0H5.30926ZM5.30926 1.875H2.1872C2.10433 1.875 2.02485 1.90792 1.96626 1.96653C1.90766 2.02513 1.87474 2.10462 1.87474 2.1875V5.31C1.87474 5.4825 2.01472 5.6225 2.1872 5.6225H5.30926C5.39213 5.6225 5.47161 5.58958 5.5302 5.53097C5.5888 5.47237 5.62172 5.39288 5.62172 5.31V2.1875C5.62172 2.10462 5.5888 2.02513 5.5302 1.96653C5.47161 1.90792 5.39213 1.875 5.30926 1.875ZM9.68366 2.5H24.0629C24.3004 2.50007 24.529 2.59031 24.7026 2.75247C24.8761 2.91463 24.9816 3.13662 24.9978 3.3736C25.014 3.61058 24.9396 3.84487 24.7898 4.02912C24.6399 4.21338 24.4257 4.33387 24.1904 4.36625L24.0629 4.375H9.68366C9.44616 4.37493 9.21755 4.28469 9.04401 4.12253C8.87047 3.96037 8.76494 3.73838 8.74876 3.5014C8.73257 3.26442 8.80692 3.03013 8.9568 2.84588C9.10668 2.66162 9.3209 2.54113 9.55618 2.50875L9.68366 2.5Z" fill="#231E1E" fill-opacity="0.8"/>
</svg>
