<svg width="18" height="18" viewBox="0 0 18 18" fill="none" xmlns="http://www.w3.org/2000/svg">
<path d="M2.11502 11.4333L0.185644 12.3985C-0.0618572 12.5223 -0.0618572 12.8755 0.185644 12.9993L8.69964 17.2574C8.79293 17.304 8.89576 17.3282 9.00002 17.3282C9.10428 17.3282 9.20711 17.304 9.3004 17.2574L17.8144 12.9993C17.87 12.9712 17.9168 12.9283 17.9494 12.8753C17.9821 12.8223 17.9994 12.7612 17.9994 12.6989C17.9994 12.6366 17.9821 12.5756 17.9494 12.5225C17.9168 12.4695 17.87 12.4266 17.8144 12.3985L15.8839 11.4333L9.90227 14.4247C9.33414 14.7082 8.66477 14.7082 8.09777 14.4247L2.11614 11.4322L2.11502 11.4333ZM9.3004 0.0707804C9.20711 0.0242309 9.10428 0 9.00002 0C8.89576 0 8.79293 0.0242309 8.69964 0.0707804L0.185644 4.32778C0.13007 4.35599 0.0833931 4.39905 0.0507889 4.45217C0.0181866 4.50528 0.000926971 4.56639 0.000926971 4.62872C0.000926971 4.69104 0.0181866 4.75215 0.0507889 4.80527C0.0833931 4.85839 0.13007 4.90144 0.185644 4.92966L8.69964 9.18553C8.79293 9.23208 8.89576 9.25631 9.00002 9.25631C9.10428 9.25631 9.20711 9.23208 9.3004 9.18553L17.8144 4.92966C17.8703 4.90173 17.9173 4.85879 17.9502 4.80563C17.9831 4.75248 18.0005 4.69122 18.0005 4.62872C18.0005 4.56622 17.9831 4.50496 17.9502 4.4518C17.9173 4.39865 17.8703 4.3557 17.8144 4.32778L9.3004 0.0707804Z" fill="white"/>
<path d="M2.11498 7.39844L0.185608 8.36369C-0.0618935 8.48744 -0.0618935 8.84069 0.185608 8.96444L8.69961 13.2214C8.79289 13.268 8.89573 13.2922 8.99998 13.2922C9.10424 13.2922 9.20707 13.268 9.30036 13.2214L17.8144 8.96444C17.87 8.9364 17.9167 8.89348 17.9494 8.84044C17.982 8.78741 17.9993 8.72635 17.9993 8.66406C17.9993 8.60178 17.982 8.54072 17.9494 8.48768C17.9167 8.43465 17.87 8.39172 17.8144 8.36369L15.8839 7.39844L9.90223 10.3898C9.33411 10.6733 8.66473 10.6733 8.09773 10.3898L2.11498 7.39844Z" fill="white"/>
</svg>
