<svg width="24" height="24" viewBox="0 0 24 24" fill="none" xmlns="http://www.w3.org/2000/svg">
<g clip-path="url(#clip0_44_421)">
<path d="M24 6L11.91 0L0 6V7.5H1.5V24H4.5V10.5H19.5V24H22.5V7.5H24V6ZM6 9V7.5H9V9H6ZM10.5 9V7.5H13.5V9H10.5ZM15 9V7.5H18V9H15Z" fill="#231E1E" fill-opacity="0.8"/>
<path d="M9 13.5H7.5V12H6V16.5H10.5V12H9V13.5ZM9 19.5H7.5V18H6V22.5H10.5V18H9V19.5ZM15 19.5H13.5V18H12V22.5H16.5V18H15V19.5Z" fill="#231E1E" fill-opacity="0.8"/>
</g>
<defs>
<clipPath id="clip0_44_421">
<rect width="24" height="24" fill="white"/>
</clipPath>
</defs>
</svg>
