<svg width="25" height="19" viewBox="0 0 25 19" fill="none" xmlns="http://www.w3.org/2000/svg">
<path d="M9.375 9.375C10.6182 9.375 11.8105 8.88114 12.6896 8.00206C13.5686 7.12299 14.0625 5.9307 14.0625 4.6875C14.0625 3.4443 13.5686 2.25201 12.6896 1.37294C11.8105 0.49386 10.6182 0 9.375 0C8.1318 0 6.93951 0.49386 6.06044 1.37294C5.18136 2.25201 4.6875 3.4443 4.6875 4.6875C4.6875 5.9307 5.18136 7.12299 6.06044 8.00206C6.93951 8.88114 8.1318 9.375 9.375 9.375ZM1.5625 18.75C1.5625 18.75 0 18.75 0 17.1875C0 15.625 1.5625 10.9375 9.375 10.9375C17.1875 10.9375 18.75 15.625 18.75 17.1875C18.75 18.75 17.1875 18.75 17.1875 18.75H1.5625ZM17.1875 2.34375C17.1875 2.13655 17.2698 1.93784 17.4163 1.79132C17.5628 1.64481 17.7615 1.5625 17.9688 1.5625H24.2188C24.426 1.5625 24.6247 1.64481 24.7712 1.79132C24.9177 1.93784 25 2.13655 25 2.34375C25 2.55095 24.9177 2.74966 24.7712 2.89618C24.6247 3.04269 24.426 3.125 24.2188 3.125H17.9688C17.7615 3.125 17.5628 3.04269 17.4163 2.89618C17.2698 2.74966 17.1875 2.55095 17.1875 2.34375ZM17.9688 6.25C17.7615 6.25 17.5628 6.33231 17.4163 6.47882C17.2698 6.62534 17.1875 6.82405 17.1875 7.03125C17.1875 7.23845 17.2698 7.43716 17.4163 7.58368C17.5628 7.73019 17.7615 7.8125 17.9688 7.8125H24.2188C24.426 7.8125 24.6247 7.73019 24.7712 7.58368C24.9177 7.43716 25 7.23845 25 7.03125C25 6.82405 24.9177 6.62534 24.7712 6.47882C24.6247 6.33231 24.426 6.25 24.2188 6.25H17.9688ZM21.0938 10.9375C20.8865 10.9375 20.6878 11.0198 20.5413 11.1663C20.3948 11.3128 20.3125 11.5115 20.3125 11.7188C20.3125 11.926 20.3948 12.1247 20.5413 12.2712C20.6878 12.4177 20.8865 12.5 21.0938 12.5H24.2188C24.426 12.5 24.6247 12.4177 24.7712 12.2712C24.9177 12.1247 25 11.926 25 11.7188C25 11.5115 24.9177 11.3128 24.7712 11.1663C24.6247 11.0198 24.426 10.9375 24.2188 10.9375H21.0938ZM21.0938 15.625C20.8865 15.625 20.6878 15.7073 20.5413 15.8538C20.3948 16.0003 20.3125 16.199 20.3125 16.4062C20.3125 16.6135 20.3948 16.8122 20.5413 16.9587C20.6878 17.1052 20.8865 17.1875 21.0938 17.1875H24.2188C24.426 17.1875 24.6247 17.1052 24.7712 16.9587C24.9177 16.8122 25 16.6135 25 16.4062C25 16.199 24.9177 16.0003 24.7712 15.8538C24.6247 15.7073 24.426 15.625 24.2188 15.625H21.0938Z" fill="#231E1E" fill-opacity="0.8"/>
</svg>
